<svg width="38" height="37" viewBox="0 0 38 37" fill="none" xmlns="http://www.w3.org/2000/svg">
<path d="M28.0105 22.542L24.2705 25.981C22.3473 27.6574 20.0879 28.9032 17.6437 29.6345L18.636 34.2644C18.6867 34.5008 18.7923 34.722 18.9442 34.9101C19.0961 35.0981 19.2902 35.2479 19.5106 35.3471C19.7311 35.4464 19.9718 35.4925 20.2133 35.4816C20.4549 35.4707 20.6905 35.4031 20.9011 35.2844L26.9217 31.8887C27.7691 31.3738 28.431 30.6031 28.812 29.6877C29.193 28.7723 29.2733 27.7595 29.0415 26.7955L28.0105 22.542ZM11.8678 13.5294L15.0879 9.7063L11.0722 8.73739C10.0959 8.39696 9.02941 8.42132 8.06969 8.80597C7.10998 9.19061 6.32189 9.90956 5.85097 10.83L2.45901 16.8424C2.34016 17.053 2.27252 17.2886 2.26156 17.5301C2.2506 17.7717 2.29663 18.0125 2.39592 18.2329C2.49522 18.4534 2.64499 18.6475 2.83314 18.7994C3.02129 18.9513 3.24254 19.0568 3.47901 19.1074L8.21616 20.1229C9.00151 17.7122 10.241 15.4741 11.8678 13.5294ZM26.4645 13.5917C26.9219 13.5917 27.369 13.4561 27.7493 13.202C28.1295 12.9479 28.4259 12.5867 28.601 12.1642C28.776 11.7416 28.8218 11.2766 28.7326 10.828C28.6433 10.3795 28.4231 9.96742 28.0997 9.64401C27.7763 9.3206 27.3642 9.10036 26.9156 9.01113C26.4671 8.9219 26.0021 8.9677 25.5795 9.14272C25.157 9.31775 24.7958 9.61415 24.5417 9.99444C24.2876 10.3747 24.152 10.8218 24.152 11.2792C24.1522 11.8924 24.3959 12.4805 24.8296 12.9141C25.2632 13.3478 25.8513 13.5915 26.4645 13.5917Z" fill="#ED017F"/>
<path d="M35.51 3.17891C35.4404 2.91486 35.302 2.67399 35.1089 2.48091C34.9159 2.28782 34.675 2.14944 34.4109 2.07987C31.2484 1.25781 27.918 1.34596 24.8034 2.33417C21.6888 3.32239 18.9168 5.17045 16.8067 7.66543L11.8678 13.5295C9.40055 16.4723 7.83536 20.0648 7.36027 23.8755C7.3298 24.1097 7.35353 24.3478 7.42961 24.5713C7.5057 24.7949 7.63212 24.998 7.79912 25.165L12.5784 29.9443C12.7215 30.0875 12.8914 30.2011 13.0785 30.2786C13.2655 30.3561 13.466 30.396 13.6684 30.396C13.7128 30.396 13.7572 30.3938 13.8024 30.39C17.6716 30.0703 21.3383 28.5259 24.2703 25.981L29.9176 20.7885C32.4214 18.6839 34.2762 15.9117 35.2662 12.7943C36.2562 9.6769 36.3408 6.34247 35.51 3.17891ZM26.4645 13.5917C26.0071 13.5917 25.56 13.456 25.1797 13.2019C24.7994 12.9478 24.503 12.5867 24.328 12.1641C24.153 11.7416 24.1072 11.2766 24.1964 10.828C24.2856 10.3794 24.5059 9.96739 24.8293 9.64398C25.1527 9.32058 25.5647 9.10033 26.0133 9.0111C26.4619 8.92188 26.9269 8.96767 27.3494 9.1427C27.772 9.31773 28.1331 9.61413 28.3872 9.99441C28.6413 10.3747 28.777 10.8218 28.777 11.2792C28.7767 11.8924 28.533 12.4805 28.0994 12.9141C27.6658 13.3477 27.0777 13.5914 26.4645 13.5917Z" fill="#F899CC"/>
</svg>
