<svg width="38" height="37" viewBox="0 0 38 37" fill="none" xmlns="http://www.w3.org/2000/svg">
<path d="M29.625 9.25H8.04163C5.48732 9.25 3.41663 11.3207 3.41663 13.875V18.0697L13.9576 21.5833H23.709L34.25 18.0697V13.875C34.25 11.3207 32.1793 9.25 29.625 9.25Z" fill="#F899CC"/>
<path d="M15.75 9.25V7.70833H21.9166V9.25H25V7.70833C24.998 6.00626 23.6187 4.62694 21.9166 4.625H15.75C14.0479 4.62694 12.6686 6.00626 12.6666 7.70833V9.25H15.75ZM13.9576 21.5833L3.41663 18.0696V27.75C3.41942 30.3032 5.48846 32.3722 8.04163 32.375H29.625C32.1781 32.3722 34.2472 30.3032 34.25 27.75V18.0696L23.709 21.5833H13.9576Z" fill="#ED017F"/>
</svg>
