<svg width="38" height="37" viewBox="0 0 38 37" fill="none" xmlns="http://www.w3.org/2000/svg">
<path d="M21.4792 13.875C20.202 13.875 19.1667 12.8397 19.1667 11.5625C19.1667 10.2853 20.202 9.25 21.4792 9.25C22.7563 9.25 23.7917 10.2853 23.7917 11.5625C23.7903 12.8391 22.7557 13.8736 21.4792 13.875Z" fill="#FCE0EF"/>
<path d="M29.9583 3.08337H8.375C5.82377 3.09082 3.75745 5.15715 3.75 7.70837V21.3675L9.73167 15.3859C11.5624 13.6438 14.4377 13.6438 16.2683 15.3859L20.6951 19.8367L22.0633 18.4684C23.8724 16.6699 26.7943 16.6699 28.6033 18.4684L34.5833 24.4484V7.70837C34.5759 5.15715 32.5096 3.09082 29.9583 3.08337ZM21.4792 13.875C20.202 13.875 19.1667 12.8397 19.1667 11.5625C19.1667 10.2854 20.202 9.25004 21.4792 9.25004C22.7563 9.25004 23.7917 10.2854 23.7917 11.5625C23.7903 12.8391 22.7557 13.8737 21.4792 13.875Z" fill="#F899CC"/>
<path d="M16.2683 15.3858C14.4376 13.6437 11.5623 13.6437 9.73167 15.3858L3.75 21.3675V29.2916C3.75746 31.8428 5.82379 33.9092 8.375 33.9166H29.9583C31.215 33.9161 32.4172 33.404 33.2883 32.4983L16.2683 15.3858Z" fill="#ED017F"/>
<path d="M34.5833 24.4484L28.6033 18.4684C26.7943 16.6699 23.8724 16.6699 22.0633 18.4684L20.695 19.8366L33.2816 32.4915C34.1174 31.6362 34.5847 30.4875 34.5833 29.2917V24.4484Z" fill="#FCE0EF"/>
</svg>
